<?xml version="1.0" standalone="no"?>
<!DOCTYPE svg PUBLIC "-//W3C//DTD SVG 20010904//EN"
 "http://www.w3.org/TR/2001/REC-SVG-20010904/DTD/svg10.dtd">
<svg version="1.0" xmlns="http://www.w3.org/2000/svg"
 width="512.000000pt" height="512.000000pt" viewBox="0 0 512.000000 512.000000"
 preserveAspectRatio="xMidYMid meet">
<metadata>
Created by potrace 1.14, written by Peter Selinger 2001-2017
</metadata>
<g transform="translate(0.000000,512.000000) scale(0.100000,-0.100000)"
fill="#000000" stroke="none">
<path d="M29 3841 l-29 -29 0 -1252 0 -1252 29 -29 29 -29 785 0 c503 0 795 3
812 10 34 13 59 69 46 104 -23 59 13 56 -793 56 l-738 0 0 663 0 663 1128 -1
1127 0 1 -150 c2 -195 0 -182 29 -210 31 -32 75 -32 112 -1 l28 24 0 689 c1
378 -3 700 -8 715 -20 62 64 58 -1292 58 l-1237 0 -29 -29z m2396 -385 c0
-134 -3 -247 -7 -251 -4 -5 -1745 -9 -2195 -5 l-53 0 0 250 0 250 1128 0 1128
0 -1 -244z m1 -483 l-2 -58 -1124 0 -1125 0 -3 58 -3 57 1129 0 1129 0 -1 -57z"/>
<path d="M1500 3453 c-73 -27 -81 -115 -13 -151 23 -13 279 -17 321 -6 12 4
29 19 37 35 28 54 13 99 -39 119 -28 10 -279 13 -306 3z"/>
<path d="M4399 3241 c-41 -21 -175 -90 -299 -153 -124 -63 -385 -209 -580
-323 -195 -114 -376 -220 -401 -234 -25 -14 -130 -75 -234 -136 l-188 -110
-357 -446 c-197 -245 -363 -455 -369 -467 -15 -28 -7 -71 19 -96 20 -21 29
-21 667 -24 620 -2 648 -2 683 17 41 21 1185 632 1295 691 39 21 129 69 200
108 72 38 150 80 175 94 81 43 99 59 106 93 3 19 1 43 -6 56 -65 125 -538 929
-557 947 -34 31 -69 28 -154 -17z m148 -292 c40 -68 76 -131 80 -139 6 -13 61
-108 93 -160 5 -8 18 -31 28 -50 11 -19 54 -93 95 -165 l75 -130 -86 -47 c-78
-42 -87 -45 -98 -30 -42 63 -464 734 -466 742 -3 12 181 112 196 107 5 -2 42
-59 83 -128z m-332 -219 c53 -85 107 -171 120 -190 12 -19 43 -66 67 -105 149
-234 188 -296 188 -303 0 -4 -14 -13 -32 -20 -26 -9 -34 -9 -40 1 -4 6 -38 62
-77 122 -38 61 -93 148 -122 195 -29 47 -100 159 -157 250 -58 91 -107 172
-109 181 -3 11 5 20 24 27 15 5 31 7 34 3 4 -3 50 -76 104 -161z m-258 -43
l60 -93 -371 -189 c-204 -103 -435 -221 -513 -262 -140 -72 -144 -73 -218 -73
-41 0 -75 3 -76 8 -7 48 -3 84 10 96 13 11 290 174 421 248 34 20 91 53 435
256 94 55 175 101 181 101 7 1 39 -41 71 -92z m182 -290 l23 -37 -474 -234
c-260 -129 -477 -236 -483 -237 -32 -12 -96 -57 -104 -74 -7 -15 -10 -3 -10
50 l0 70 97 48 c53 26 282 142 507 257 226 114 413 205 416 202 3 -4 16 -24
28 -45z m179 -284 l60 -97 -66 -36 c-37 -20 -184 -99 -327 -175 -143 -76 -282
-150 -310 -165 -27 -15 -127 -68 -222 -119 l-172 -92 -43 15 c-48 16 -48 13
-16 121 24 80 24 81 14 118 l-6 27 502 249 c277 137 508 250 515 250 6 1 38
-43 71 -96z m-1602 -203 c14 -6 66 -10 115 -10 l89 0 0 -104 c0 -121 11 -142
85 -170 25 -10 45 -23 45 -29 0 -7 -9 -49 -21 -94 l-22 -83 -227 0 -227 0 -14
28 c-7 15 -27 47 -44 72 -98 149 -103 114 42 294 l127 158 13 -27 c8 -14 25
-30 39 -35z m-391 -440 c14 -22 25 -42 25 -45 0 -3 -27 -5 -60 -5 -33 0 -60 3
-60 6 0 6 62 84 67 84 1 0 14 -18 28 -40z"/>
<path d="M414 2517 c-50 -28 -60 -92 -19 -132 20 -21 34 -25 82 -26 32 0 269
0 526 0 l468 -1 25 27 c41 44 30 105 -25 134 -24 13 -1033 11 -1057 -2z"/>
<path d="M430 2267 c-61 -16 -81 -94 -34 -138 l26 -24 516 -1 c284 0 525 3
534 8 54 27 65 91 23 133 -13 14 -30 25 -37 26 -70 5 -1005 2 -1028 -4z"/>
<path d="M396 1995 c-28 -26 -35 -78 -13 -106 29 -38 43 -39 570 -39 l514 0
27 26 c17 18 26 37 26 58 0 36 -6 46 -40 69 -23 16 -70 17 -541 17 l-517 -1
-26 -24z"/>
</g>
</svg>
